<svg width="98" height="31" viewBox="0 0 98 31" fill="none" xmlns="http://www.w3.org/2000/svg">
<path opacity="0.4" d="M91.3532 18.7318C92.2448 19.4925 92.6153 20.0068 92.7659 20.2759C92.5622 20.5074 92.0918 20.9324 91.0603 21.4888C89.0806 22.5566 85.9427 23.5745 81.6658 24.3355C73.1804 25.8455 61.3527 26.1492 48.2624 24.7583C35.1722 23.3674 23.6723 20.585 15.6938 17.3257C11.6723 15.6829 8.81828 14.0283 7.10722 12.5684C6.21565 11.8077 5.8451 11.2933 5.6945 11.0242C5.89828 10.7928 6.36865 10.3677 7.40017 9.81136C9.3798 8.74359 12.5178 7.72569 16.7947 6.96461C25.28 5.45464 37.1078 5.15097 50.198 6.54186C63.2882 7.93276 74.7881 10.7151 82.7667 13.9744C86.7882 15.6173 89.6422 17.2718 91.3532 18.7318Z" stroke="url(#paint0_radial_206_916)" stroke-width="10"/>
<defs>
<radialGradient id="paint0_radial_206_916" cx="0" cy="0" r="1" gradientUnits="userSpaceOnUse" gradientTransform="translate(49.2302 15.6501) rotate(96.0652) scale(14.1595 48.8793)">
<stop stop-color="#3F51E8"/>
<stop offset="0.572917" stop-color="#9BA4ED"/>
<stop offset="1" stop-color="#1F34E7"/>
</radialGradient>
</defs>
</svg>
